<svg width="856" height="800" viewBox="0 0 856 800" fill="none" xmlns="http://www.w3.org/2000/svg">
<path d="M44.7064 533.61L44.712 533.614L44.7177 533.618C56.4638 541.766 70.0359 548.928 85.4253 555.105C122.279 569.897 159.631 574.843 197.43 569.799C235.04 565.094 270.869 548.631 304.903 520.705L304.91 520.699L499.799 359.511L572.45 388.671L574.018 389.301L575.337 388.204L646.803 328.777L648.606 327.277L646.462 326.417L574.396 297.491L647.154 237.169L647.157 237.167C656.971 229.003 666.838 224.141 676.746 222.315C686.627 220.493 696.911 221.625 707.678 225.947C720.246 230.991 730.935 239.287 739.686 250.936L740.641 252.208L742.596 251.411L842.537 210.695L844.886 209.738L843.513 208.321C832.695 197.147 821.427 187.49 809.707 179.359C798.418 171.392 785.074 164.322 769.688 158.147C732.839 143.357 695.653 138.231 658.177 142.916C620.554 147.62 584.561 164.267 550.207 192.549L550.2 192.555L472.885 256.748L401.625 228.146L400.057 227.517L398.738 228.613L327.272 288.04L325.469 289.54L327.613 290.4L398.288 318.768L207.961 476.08L207.952 476.088L207.943 476.096C197.618 484.815 187.658 489.766 178.072 491.326C168.418 492.897 158.229 491.637 147.435 487.304C134.867 482.26 124.178 473.965 115.427 462.315L114.472 461.044L112.517 461.84L12.5761 502.556L10.2271 503.513L11.5996 504.931C22.4153 516.102 33.4494 525.664 44.7064 533.61Z" stroke="#5CF39B" stroke-width="3.87921"/>
<path opacity="0.9" d="M44.7064 562.205L44.712 562.209L44.7177 562.213C56.4638 570.361 70.0359 577.523 85.4253 583.699C122.279 598.492 159.631 603.438 197.43 598.394C235.04 593.689 270.869 577.226 304.903 549.3L304.91 549.294L499.799 388.106L572.45 417.266L574.018 417.896L575.337 416.799L646.803 357.372L648.606 355.872L646.462 355.012L574.396 326.086L647.154 265.764L647.157 265.762C656.971 257.598 666.838 252.736 676.746 250.91C686.627 249.088 696.911 250.22 707.678 254.542C720.246 259.586 730.935 267.882 739.686 279.531L740.641 280.803L742.596 280.006L842.537 239.29L844.886 238.333L843.513 236.916C832.695 225.742 821.427 216.085 809.707 207.954C798.418 199.987 785.074 192.917 769.688 186.742C732.839 171.952 695.653 166.826 658.177 171.511C620.554 176.215 584.561 192.862 550.207 221.144L550.2 221.15L472.885 285.343L401.625 256.741L400.057 256.112L398.738 257.208L327.272 316.635L325.469 318.135L327.613 318.995L398.288 347.363L207.961 504.675L207.952 504.683L207.943 504.691C197.618 513.41 187.658 518.361 178.072 519.921C168.418 521.492 158.229 520.232 147.435 515.899C134.867 510.855 124.178 502.56 115.427 490.91L114.472 489.639L112.517 490.435L12.5761 531.151L10.2271 532.108L11.5996 533.526C22.4153 544.697 33.4494 554.259 44.7064 562.205Z" stroke="#5CF39B" stroke-width="3.87921"/>
<path opacity="0.8" d="M44.7064 590.8L44.712 590.804L44.7177 590.808C56.4638 598.957 70.0359 606.118 85.4253 612.295C122.279 627.087 159.631 632.033 197.43 626.989C235.04 622.285 270.869 605.821 304.903 577.895L304.91 577.889L499.799 416.702L572.45 445.862L574.018 446.491L575.337 445.394L646.803 385.967L648.606 384.468L646.462 383.607L574.396 354.682L647.154 294.359L647.157 294.357C656.971 286.194 666.838 281.331 676.746 279.505C686.627 277.683 696.911 278.815 707.678 283.137C720.246 288.182 730.935 296.477 739.686 308.126L740.641 309.398L742.596 308.601L842.537 267.886L844.886 266.929L843.513 265.511C832.695 254.337 821.427 244.68 809.707 236.549C798.418 228.582 785.074 221.513 769.688 215.337C732.839 200.547 695.653 195.421 658.177 200.106C620.554 204.81 584.561 221.457 550.207 249.739L550.2 249.745L472.885 313.938L401.625 285.336L400.057 284.707L398.738 285.804L327.272 345.231L325.469 346.73L327.613 347.591L398.288 375.958L207.961 533.27L207.952 533.278L207.943 533.286C197.618 542.005 187.658 546.957 178.072 548.517C168.418 550.087 158.229 548.827 147.435 544.495C134.867 539.45 124.178 531.155 115.427 519.505L114.472 518.234L112.517 519.03L12.5761 559.746L10.2271 560.703L11.5996 562.121C22.4153 573.292 33.4494 582.855 44.7064 590.8Z" stroke="#5CF39B" stroke-width="3.87921"/>
<path opacity="0.7" d="M44.7064 619.395L44.712 619.399L44.7177 619.403C56.4638 627.552 70.0359 634.713 85.4253 640.89C122.279 655.682 159.631 660.628 197.43 655.584C235.04 650.88 270.869 634.416 304.903 606.49L304.91 606.484L499.799 445.297L572.45 474.456L574.018 475.086L575.337 473.989L646.803 414.562L648.606 413.063L646.462 412.202L574.396 383.277L647.154 322.954L647.157 322.952C656.971 314.789 666.838 309.926 676.746 308.1C686.627 306.278 696.911 307.41 707.678 311.732C720.246 316.777 730.935 325.072 739.686 336.721L740.641 337.993L742.596 337.196L842.537 296.481L844.886 295.524L843.513 294.106C832.695 282.932 821.427 273.275 809.707 265.144C798.418 257.177 785.074 250.108 769.688 243.932C732.839 229.142 695.653 224.016 658.177 228.701C620.554 233.405 584.561 250.052 550.207 278.334L550.2 278.34L472.885 342.533L401.625 313.931L400.057 313.302L398.738 314.399L327.272 373.825L325.469 375.325L327.613 376.186L398.288 404.553L207.961 561.865L207.952 561.873L207.943 561.881C197.618 570.6 187.658 575.552 178.072 577.111C168.418 578.682 158.229 577.422 147.435 573.09C134.867 568.045 124.178 559.75 115.427 548.1L114.472 546.829L112.517 547.625L12.5761 588.341L10.2271 589.298L11.5996 590.716C22.4153 601.887 33.4494 611.45 44.7064 619.395Z" stroke="#5CF39B" stroke-width="3.87921"/>
<path opacity="0.6" d="M44.7064 647.99L44.712 647.994L44.7177 647.998C56.4638 656.147 70.0359 663.308 85.4253 669.485C122.279 684.277 159.631 689.223 197.43 684.179C235.04 679.475 270.869 663.011 304.903 635.085L304.91 635.079L499.799 473.891L572.45 503.051L574.018 503.681L575.337 502.584L646.803 443.157L648.606 441.658L646.462 440.797L574.396 411.872L647.154 351.549L647.157 351.547C656.971 343.383 666.838 338.521 676.746 336.695C686.627 334.873 696.911 336.005 707.678 340.327C720.246 345.372 730.935 353.667 739.686 365.316L740.641 366.588L742.596 365.791L842.537 325.075L844.886 324.118L843.513 322.701C832.695 311.527 821.427 301.87 809.707 293.739C798.418 285.772 785.074 278.703 769.688 272.527C732.839 257.737 695.653 252.611 658.177 257.296C620.554 262 584.561 278.647 550.207 306.929L550.2 306.935L472.885 371.128L401.625 342.526L400.057 341.897L398.738 342.994L327.272 402.42L325.469 403.92L327.613 404.781L398.288 433.148L207.961 590.46L207.952 590.468L207.943 590.476C197.618 599.195 187.658 604.147 178.072 605.706C168.418 607.277 158.229 606.017 147.435 601.684C134.867 596.64 124.178 588.345 115.427 576.695L114.472 575.424L112.517 576.22L12.5761 616.936L10.2271 617.893L11.5996 619.311C22.4153 630.482 33.4494 640.045 44.7064 647.99Z" stroke="#5CF39B" stroke-width="3.87921"/>
<path opacity="0.5" d="M44.7064 676.585L44.712 676.589L44.7177 676.593C56.4638 684.742 70.0359 691.903 85.4253 698.08C122.279 712.872 159.631 717.818 197.43 712.774C235.04 708.07 270.869 691.606 304.903 663.68L304.91 663.675L499.799 502.487L572.45 531.647L574.018 532.276L575.337 531.179L646.803 471.752L648.606 470.253L646.462 469.392L574.396 440.467L647.154 380.144L647.157 380.142C656.971 371.979 666.838 367.116 676.746 365.29C686.627 363.469 696.911 364.601 707.678 368.922C720.246 373.967 730.935 382.262 739.686 393.911L740.641 395.183L742.596 394.386L842.537 353.671L844.886 352.714L843.513 351.296C832.695 340.122 821.427 330.466 809.707 322.334C798.418 314.367 785.074 307.298 769.688 301.122C732.839 286.332 695.653 281.207 658.177 285.892C620.554 290.595 584.561 307.243 550.207 335.524L550.2 335.53L472.885 399.723L401.625 371.121L400.057 370.492L398.738 371.589L327.272 431.016L325.469 432.515L327.613 433.376L398.288 461.743L207.961 619.055L207.952 619.063L207.943 619.071C197.618 627.79 187.658 632.742 178.072 634.302C168.418 635.873 158.229 634.612 147.435 630.28C134.867 625.235 124.178 616.94 115.427 605.291L114.472 604.019L112.517 604.816L12.5761 645.531L10.2271 646.488L11.5996 647.906C22.4153 659.077 33.4494 668.64 44.7064 676.585Z" stroke="#5CF39B" stroke-width="3.87921"/>
<path opacity="0.4" d="M44.7064 705.18L44.712 705.184L44.7177 705.188C56.4638 713.337 70.0359 720.498 85.4253 726.675C122.279 741.467 159.631 746.413 197.43 741.369C235.04 736.665 270.869 720.201 304.903 692.275L304.91 692.27L499.799 531.082L572.45 560.242L574.018 560.871L575.337 559.774L646.803 500.347L648.606 498.848L646.462 497.987L574.396 469.062L647.154 408.739L647.157 408.737C656.971 400.574 666.838 395.711 676.746 393.885C686.627 392.064 696.911 393.196 707.678 397.517C720.246 402.562 730.935 410.857 739.686 422.506L740.641 423.778L742.596 422.981L842.537 382.266L844.886 381.309L843.513 379.891C832.695 368.717 821.427 359.061 809.707 350.929C798.418 342.962 785.074 335.893 769.688 329.717C732.839 314.927 695.653 309.802 658.177 314.487C620.554 319.19 584.561 335.837 550.207 364.119L550.2 364.125L472.885 428.318L401.625 399.716L400.057 399.087L398.738 400.184L327.272 459.611L325.469 461.11L327.613 461.971L398.288 490.338L207.961 647.65L207.952 647.658L207.943 647.666C197.618 656.385 187.658 661.337 178.072 662.897C168.418 664.468 158.229 663.207 147.435 658.875C134.867 653.83 124.178 645.535 115.427 633.886L114.472 632.614L112.517 633.411L12.5761 674.126L10.2271 675.083L11.5996 676.501C22.4153 687.672 33.4494 697.235 44.7064 705.18Z" stroke="#5CF39B" stroke-width="3.87921"/>
<path opacity="0.3" d="M44.7064 733.775L44.712 733.779L44.7177 733.783C56.4638 741.932 70.0359 749.093 85.4253 755.27C122.279 770.062 159.631 775.008 197.43 769.964C235.04 765.26 270.869 748.796 304.903 720.87L304.91 720.865L499.799 559.677L572.45 588.837L574.018 589.466L575.337 588.369L646.803 528.942L648.606 527.443L646.462 526.582L574.396 497.657L647.154 437.334L647.157 437.332C656.971 429.169 666.838 424.306 676.746 422.48C686.627 420.659 696.911 421.791 707.678 426.112C720.246 431.157 730.935 439.452 739.686 451.102L740.641 452.373L742.596 451.577L842.537 410.861L844.886 409.904L843.513 408.486C832.695 397.312 821.427 387.656 809.707 379.524C798.418 371.557 785.074 364.488 769.688 358.312C732.839 343.522 695.653 338.397 658.177 343.082C620.554 347.785 584.561 364.433 550.207 392.714L550.2 392.72L472.885 456.913L401.625 428.311L400.057 427.682L398.738 428.779L327.272 488.206L325.469 489.705L327.613 490.566L398.288 518.933L207.961 676.245L207.952 676.253L207.943 676.261C197.618 684.98 187.658 689.932 178.072 691.492C168.418 693.063 158.229 691.802 147.435 687.47C134.867 682.425 124.178 674.13 115.427 662.481L114.472 661.209L112.517 662.006L12.5761 702.721L10.2271 703.678L11.5996 705.096C22.4153 716.267 33.4494 725.83 44.7064 733.775Z" stroke="#5CF39B" stroke-width="3.87921"/>
<path opacity="0.2" d="M44.7064 762.37L44.712 762.374L44.7177 762.378C56.4638 770.527 70.0359 777.688 85.4253 783.865C122.279 798.657 159.631 803.603 197.43 798.559C235.04 793.855 270.869 777.391 304.903 749.465L304.91 749.46L499.799 588.272L572.45 617.432L574.018 618.061L575.337 616.964L646.803 557.537L648.606 556.038L646.462 555.177L574.396 526.252L647.154 465.929L647.157 465.927C656.971 457.764 666.838 452.901 676.746 451.075C686.627 449.254 696.911 450.386 707.678 454.707C720.246 459.752 730.935 468.047 739.686 479.696L740.641 480.968L742.596 480.171L842.537 439.456L844.886 438.499L843.513 437.081C832.695 425.907 821.427 416.251 809.707 408.119C798.418 400.152 785.074 393.083 769.688 386.907C732.839 372.117 695.653 366.992 658.177 371.677C620.554 376.38 584.561 393.028 550.207 421.309L550.2 421.315L472.885 485.508L401.625 456.906L400.057 456.277L398.738 457.374L327.272 516.801L325.469 518.3L327.613 519.161L398.288 547.528L207.961 704.84L207.952 704.848L207.943 704.856C197.618 713.575 187.658 718.527 178.072 720.087C168.418 721.658 158.229 720.397 147.435 716.065C134.867 711.02 124.178 702.725 115.427 691.076L114.472 689.804L112.517 690.601L12.5761 731.316L10.2271 732.273L11.5996 733.691C22.4153 744.862 33.4494 754.425 44.7064 762.37Z" stroke="#5CF39B" stroke-width="3.87921"/>
<path opacity="0.1" d="M44.7064 790.965L44.712 790.969L44.7177 790.973C56.4638 799.122 70.0359 806.283 85.4253 812.46C122.279 827.252 159.631 832.198 197.43 827.154C235.04 822.45 270.869 805.986 304.903 778.06L304.91 778.055L499.799 616.867L572.45 646.027L574.018 646.656L575.337 645.559L646.803 586.133L648.606 584.633L646.462 583.772L574.396 554.847L647.154 494.525L647.157 494.522C656.971 486.359 666.838 481.496 676.746 479.67C686.627 477.849 696.911 478.981 707.678 483.302C720.246 488.347 730.935 496.642 739.686 508.292L740.641 509.563L742.596 508.767L842.537 468.051L844.886 467.094L843.513 465.676C832.695 454.502 821.427 444.846 809.707 436.715C798.418 428.747 785.074 421.678 769.688 415.502C732.839 400.712 695.653 395.587 658.177 400.272C620.554 404.975 584.561 421.623 550.207 449.904L550.2 449.91L472.885 514.103L401.625 485.501L400.057 484.872L398.738 485.969L327.272 545.396L325.469 546.895L327.613 547.756L398.288 576.123L207.961 733.436L207.952 733.443L207.943 733.451C197.618 742.17 187.658 747.122 178.072 748.682C168.418 750.253 158.229 748.992 147.435 744.66C134.867 739.615 124.178 731.32 115.427 719.671L114.472 718.399L112.517 719.196L12.5761 759.912L10.2271 760.869L11.5996 762.286C22.4153 773.457 33.4494 783.02 44.7064 790.965Z" stroke="#5CF39B" stroke-width="3.87921"/>
<path d="M86.6986 525.251C71.4396 519.126 57.9982 512.032 46.3745 503.968C35.2131 496.09 24.251 486.593 13.488 475.477L113.429 434.761C122.304 446.576 133.215 455.082 146.162 460.278C157.259 464.732 167.971 466.119 178.299 464.439C188.626 462.758 199.05 457.476 209.57 448.591L401.713 289.777L328.886 260.547L400.352 201.12L473.179 230.351L551.812 165.062C585.904 136.996 621.395 120.657 658.285 116.046C695.176 111.434 731.885 116.459 768.414 131.121C783.673 137.245 796.883 144.246 808.045 152.125C819.669 160.188 830.862 169.778 841.625 180.895L741.684 221.611C732.809 209.796 721.898 201.29 708.951 196.093C686.756 187.185 665.62 191.081 645.543 207.781L570.975 269.603L645.189 299.391L573.723 358.818L499.509 329.03L303.301 491.309C269.53 519.019 234.199 535.179 197.309 539.791C160.098 544.759 123.228 539.913 86.6986 525.251Z" fill="#5CF39B"/>
</svg>
