<svg width="163" height="77" viewBox="0 0 163 77" fill="none" xmlns="http://www.w3.org/2000/svg">
<path d="M6.24944 44.4013C5.43539 44.4013 4.65835 44.315 3.91831 44.1423C3.20294 43.9696 2.43823 43.7106 1.62419 43.3653L4.10332 39.2581C4.86803 39.6774 5.59573 39.8871 6.28644 39.8871C6.87847 39.8871 7.34716 39.7391 7.69251 39.4431C8.03786 39.1471 8.25988 38.666 8.35855 38L10.2826 26.0114H6.39744L7.10048 21.5341H10.9857L11.7627 16.6129C12.1081 14.4914 12.9221 12.9373 14.2049 11.9506C15.4876 10.9639 17.1033 10.4705 19.0521 10.4705C19.8662 10.4705 20.6309 10.5569 21.3462 10.7296C22.0863 10.9022 22.8633 11.1612 23.6774 11.5066L21.1982 15.6138C20.4335 15.1945 19.7058 14.9848 19.0151 14.9848C17.831 14.9848 17.1403 15.6138 16.943 16.8719L16.203 21.5341H20.1622L19.4591 26.0114H15.4999L13.5388 38.259C13.1935 40.3558 12.3794 41.8975 11.0967 42.8843C9.81396 43.8956 8.19821 44.4013 6.24944 44.4013ZM35.7128 38.629C33.098 38.629 30.8286 37.926 28.9045 36.5199L27.2764 38.148L24.8712 36.2979L26.7954 34.3738C25.4879 32.5237 24.8342 30.3159 24.8342 27.7505C24.8342 25.629 25.2906 23.7419 26.2033 22.0892C27.116 20.4364 28.3988 19.1537 30.0515 18.241C31.7043 17.3282 33.5914 16.8719 35.7128 16.8719C38.2783 16.8719 40.4984 17.5379 42.3732 18.87L44.4453 16.7979L46.8504 18.648L44.5193 20.9791C45.9007 22.8539 46.5914 25.111 46.5914 27.7505C46.5914 29.8719 46.135 31.759 45.2223 33.4118C44.3096 35.0645 43.0269 36.3472 41.3741 37.26C39.7214 38.1727 37.8343 38.629 35.7128 38.629ZM40.1161 21.1271C38.8827 20.2637 37.4149 19.832 35.7128 19.832C34.2327 19.832 32.913 20.1651 31.7536 20.8311C30.5942 21.4971 29.6938 22.4345 29.0525 23.6432C28.4111 24.852 28.0904 26.221 28.0904 27.7505C28.0904 29.3785 28.4481 30.8093 29.1635 32.0427L40.1161 21.1271ZM35.7128 35.6689C37.1929 35.6689 38.5126 35.3359 39.672 34.6698C40.8314 34.0038 41.7318 33.0664 42.3732 31.8577C43.0145 30.6489 43.3352 29.2799 43.3352 27.7505C43.3352 26.0484 42.9529 24.5683 42.1882 23.3102L31.1616 34.2998C32.469 35.2125 33.9861 35.6689 35.7128 35.6689ZM51.4045 18.944H56.6218V22.0522H56.9178C57.6332 20.7941 58.3362 19.869 59.0269 19.277C59.7423 18.685 60.6304 18.389 61.6911 18.389C62.1351 18.389 62.5051 18.4383 62.8011 18.537L62.2461 24.1613C61.6047 23.9886 61.0867 23.9023 60.692 23.9023C60.1247 23.9023 59.619 24.0133 59.175 24.2353C58.7556 24.4573 58.3732 24.7533 58.0279 25.1233C57.7072 25.4933 57.2385 26.0607 56.6218 26.8254V38H51.4045V18.944ZM66.0726 18.944H71.1789V21.9041C72.6837 19.5854 74.7188 18.426 77.2842 18.426C78.7396 18.426 79.973 18.7713 80.9844 19.462C82.0205 20.1281 82.7729 21.0901 83.2415 22.3482C84.1049 20.9914 85.067 20.0047 86.1277 19.388C87.2131 18.7466 88.4465 18.426 89.8279 18.426C91.8753 18.426 93.4664 19.0427 94.6011 20.2761C95.7605 21.4848 96.3402 23.1745 96.3402 25.3453V38H91.123V26.1594C91.123 25.1727 90.8763 24.4079 90.3829 23.8653C89.9142 23.2979 89.2729 23.0142 88.4588 23.0142C87.4474 23.0142 86.5101 23.4336 85.6467 24.2723C84.7833 25.111 84.1419 26.184 83.7226 27.4914V38H78.5053V26.1594C78.5053 25.1973 78.2586 24.4326 77.7653 23.8653C77.2719 23.2979 76.6182 23.0142 75.8042 23.0142C74.8914 23.0142 74.0281 23.3596 73.214 24.0503C72.4246 24.7163 71.7833 25.666 71.2899 26.8994V38H66.0726V18.944ZM107.306 38.518C105.283 38.518 103.692 37.9013 102.533 36.6679C101.373 35.4345 100.794 33.7448 100.794 31.5987V18.944H106.011V30.7476C106.011 31.759 106.258 32.5484 106.751 33.1157C107.244 33.6584 107.91 33.9298 108.749 33.9298C109.588 33.9298 110.39 33.6584 111.154 33.1157C111.944 32.573 112.597 31.8453 113.115 30.9326V18.944H118.333V38H113.115V35.4839C112.4 36.4459 111.574 37.1983 110.636 37.741C109.724 38.259 108.614 38.518 107.306 38.518ZM120.502 38L129.05 18.537L128.051 15.7618C127.656 14.7011 127.224 13.8747 126.756 13.2827C126.287 12.666 125.522 12.3576 124.461 12.3576C124.017 12.3576 123.623 12.3823 123.277 12.4316C122.957 12.481 122.661 12.5303 122.389 12.5797V9.95252C122.735 9.87851 123.117 9.81684 123.536 9.76751C123.956 9.6935 124.387 9.6565 124.831 9.6565C126.114 9.6565 127.138 9.87851 127.903 10.3225C128.692 10.7666 129.346 11.4449 129.864 12.3576C130.406 13.2704 130.924 14.4421 131.418 15.8728L137.819 33.7078C138.288 35.0398 138.905 35.7059 139.669 35.7059C139.867 35.7059 140.064 35.6812 140.261 35.6319C140.483 35.5825 140.656 35.5455 140.779 35.5209V37.926C140.508 38.0493 140.187 38.148 139.817 38.222C139.472 38.3207 139.09 38.37 138.67 38.37C137.757 38.37 137.03 38.148 136.487 37.704C135.969 37.2353 135.513 36.4583 135.118 35.3729L132.417 27.7875C132.22 27.1954 131.985 26.5417 131.714 25.8264C131.467 25.0863 131.233 24.3709 131.011 23.6802C130.813 22.9649 130.665 22.3728 130.567 21.9041H130.419C130.197 22.7675 129.901 23.6926 129.531 24.6793C129.185 25.666 128.803 26.6404 128.384 27.6024L123.869 38H120.502ZM148.697 38.555C146.724 38.555 145.158 37.7163 143.998 36.0389C142.839 34.3615 142.259 32.0797 142.259 29.1935C142.259 25.6907 143.147 23.0265 144.923 21.2011C146.699 19.351 149.252 18.426 152.583 18.426C154.457 18.426 156.653 18.722 159.169 19.314V38H154.211L154.322 34.9658H154.174C153.532 36.1252 152.743 37.0133 151.806 37.63C150.893 38.2467 149.857 38.555 148.697 38.555ZM149.807 34.0038C150.572 34.0038 151.325 33.5968 152.065 32.7827C152.805 31.9687 153.495 30.8833 154.137 29.5266V23.3102C153.347 23.0882 152.558 22.9772 151.769 22.9772C150.289 22.9772 149.166 23.4829 148.401 24.4943C147.661 25.5057 147.291 26.9981 147.291 28.9715C147.291 30.5256 147.513 31.759 147.957 32.6717C148.401 33.5598 149.018 34.0038 149.807 34.0038Z" fill="#5CF39B"/>
<path d="M50.2201 63.2192C49.1707 63.2192 48.2675 62.9336 47.5103 62.3624C46.7531 61.7912 46.3746 60.9942 46.3746 59.9714C46.3746 58.8954 46.7731 58.0652 47.5701 57.4807C48.3671 56.8962 49.4364 56.604 50.778 56.604C51.8407 56.604 52.8901 56.7501 53.9262 57.0423V56.7235C53.9262 55.8203 53.6606 55.1295 53.1292 54.6513C52.5979 54.1731 51.8474 53.934 50.8777 53.934C49.8681 53.934 48.8254 54.1797 47.7494 54.6712L47.2911 53.4159C48.5663 52.8315 49.815 52.5392 51.0371 52.5392C52.4983 52.5392 53.6074 52.9178 54.3646 53.675C55.0819 54.3923 55.4406 55.4018 55.4406 56.7036V63H53.9262V61.4658C53.0097 62.6347 51.7743 63.2192 50.2201 63.2192ZM50.519 61.9838C51.4754 61.9838 52.2857 61.7248 52.9499 61.2067C53.6141 60.6887 53.9462 60.0245 53.9462 59.2142V58.2578C52.9366 57.9655 51.9337 57.8194 50.9374 57.8194C49.9943 57.8194 49.2571 58.012 48.7257 58.3973C48.1944 58.7692 47.9287 59.2806 47.9287 59.9315C47.9287 60.5558 48.1745 61.054 48.666 61.4259C49.1707 61.7978 49.7884 61.9838 50.519 61.9838ZM63.2533 66.2279C61.5132 66.2279 59.9523 65.7497 58.5709 64.7933L59.2682 63.5978C60.477 64.4745 61.7988 64.9128 63.2334 64.9128C64.389 64.9128 65.299 64.594 65.9631 63.9564C66.6406 63.3321 66.9793 62.4288 66.9793 61.2466V60.0311C65.8901 61.479 64.5418 62.203 62.9345 62.203C61.6327 62.203 60.497 61.758 59.5273 60.868C58.5709 59.9647 58.0926 58.7891 58.0926 57.3412C58.0926 55.8933 58.5775 54.7244 59.5472 53.8344C60.5169 52.9311 61.646 52.4794 62.9345 52.4794C64.5816 52.4794 65.9233 53.1702 66.9594 54.5517V52.6986H68.4936V61.2067C68.4936 62.7609 68.0553 63.9763 67.1786 64.8531C66.262 65.7696 64.9536 66.2279 63.2533 66.2279ZM63.2334 60.8481C64.2429 60.8481 65.1263 60.516 65.8834 59.8518C66.6406 59.1876 67.0192 58.3441 67.0192 57.3213C67.0192 56.2985 66.6406 55.4616 65.8834 54.8107C65.1396 54.1598 64.2562 53.8344 63.2334 53.8344C62.2238 53.8344 61.3737 54.1598 60.6829 54.8107C60.0055 55.4483 59.6667 56.2918 59.6667 57.3412C59.6667 58.3508 60.0121 59.1876 60.7029 59.8518C61.4069 60.516 62.2504 60.8481 63.2334 60.8481ZM72.8386 58.477C72.9449 59.5264 73.3367 60.3632 74.0142 60.9875C74.7049 61.5986 75.5219 61.9041 76.465 61.9041C77.7004 61.9041 78.783 61.4193 79.7128 60.4496L80.6692 61.3064C79.5136 62.5949 78.0989 63.2391 76.4252 63.2391C74.9773 63.2391 73.7552 62.741 72.7589 61.7447C71.7759 60.7352 71.2844 59.44 71.2844 57.8593C71.2844 56.3582 71.756 55.0897 72.6991 54.0535C73.6423 53.0041 74.8179 52.4794 76.2259 52.4794C77.7004 52.4794 78.8693 52.9975 79.7328 54.0336C80.5962 55.0697 81.0279 56.3715 81.0279 57.939C81.0279 58.1382 81.0213 58.3176 81.008 58.477H72.8386ZM72.8386 57.2416H79.4737C79.3807 56.2453 79.0487 55.4217 78.4775 54.7709C77.9196 54.1067 77.1558 53.7746 76.1861 53.7746C75.3093 53.7746 74.5588 54.1 73.9345 54.7509C73.3102 55.4018 72.9449 56.232 72.8386 57.2416ZM83.7138 63V52.6986H85.248V54.4919C86.0583 53.1503 87.2339 52.4794 88.7748 52.4794C89.9969 52.4794 90.9599 52.858 91.664 53.6152C92.368 54.3591 92.72 55.3553 92.72 56.604V63H91.1857V56.9826C91.1857 56.0129 90.9334 55.2557 90.4286 54.7111C89.9371 54.1532 89.2397 53.8742 88.3364 53.8742C87.4464 53.8742 86.7092 54.1731 86.1247 54.7709C85.5402 55.3686 85.248 56.1457 85.248 57.1021V63H83.7138ZM100.635 63.2391C99.1468 63.2391 97.8915 62.7144 96.8687 61.665C95.8591 60.6023 95.3543 59.3337 95.3543 57.8593C95.3543 56.3848 95.8591 55.1229 96.8687 54.0735C97.8915 53.0108 99.1468 52.4794 100.635 52.4794C102.229 52.4794 103.603 53.0905 104.759 54.3126L103.783 55.3487C102.826 54.3391 101.77 53.8344 100.615 53.8344C99.5785 53.8344 98.7018 54.2262 97.9845 55.01C97.2804 55.7804 96.9284 56.7302 96.9284 57.8593C96.9284 58.9751 97.2871 59.9249 98.0044 60.7086C98.735 61.479 99.6383 61.8643 100.714 61.8643C101.817 61.8643 102.853 61.3462 103.823 60.3101L104.839 61.2466C103.643 62.5749 102.242 63.2391 100.635 63.2391ZM108.969 66.2478C108.225 66.2478 107.495 66.0751 106.777 65.7298L107.295 64.5143C107.787 64.7667 108.325 64.8929 108.909 64.8929C109.374 64.8929 109.766 64.7468 110.085 64.4545C110.404 64.1756 110.716 63.6775 111.021 62.9601L106.339 52.6986H108.033L111.779 61.2864L115.086 52.6986H116.72L112.396 63.3387C111.958 64.3881 111.473 65.132 110.942 65.5704C110.41 66.022 109.753 66.2478 108.969 66.2478Z" fill="#2F80ED"/>
</svg>
