<svg width="25" height="25" viewBox="0 0 25 25" fill="none" xmlns="http://www.w3.org/2000/svg">
<path d="M7.83706 12.6268C8.80953 14.6149 10.4211 16.2191 12.4136 17.1825C12.5594 17.2516 12.7207 17.2815 12.8815 17.2694C13.0424 17.2572 13.1973 17.2033 13.3311 17.1131L16.2649 15.1567C16.3947 15.0702 16.544 15.0174 16.6993 15.0032C16.8546 14.9889 17.011 15.0136 17.1543 15.075L22.643 17.4273C22.8295 17.5065 22.9852 17.6442 23.0866 17.8196C23.188 17.9949 23.2297 18.1985 23.2054 18.3996C23.0319 19.7571 22.3695 21.0048 21.3423 21.9092C20.3151 22.8135 18.9935 23.3124 17.625 23.3125C13.3981 23.3125 9.34435 21.6333 6.35549 18.6445C3.36662 15.6556 1.6875 11.6019 1.6875 7.37496C1.68757 6.00642 2.18648 4.68482 3.0908 3.65763C3.99512 2.63044 5.24285 1.96809 6.60035 1.79461C6.80146 1.77027 7.00503 1.81195 7.1804 1.91337C7.35576 2.01479 7.49341 2.17045 7.57262 2.3569L9.92698 7.8504C9.98787 7.9925 10.0127 8.14745 9.99921 8.30145C9.98573 8.45546 9.93437 8.60374 9.84971 8.73309L7.90014 11.712C7.8114 11.846 7.75895 12.0007 7.74789 12.161C7.73684 12.3214 7.76756 12.4818 7.83706 12.6268V12.6268Z" stroke="#5CF39B" stroke-width="3" stroke-linecap="round" stroke-linejoin="round"/>
</svg>
